<?xml version="1.0" standalone="no"?>
<!DOCTYPE svg PUBLIC "-//W3C//DTD SVG 20010904//EN"
 "http://www.w3.org/TR/2001/REC-SVG-20010904/DTD/svg10.dtd">
<svg version="1.0" xmlns="http://www.w3.org/2000/svg"
 width="4000.000000pt" height="4000.000000pt" viewBox="0 0 4000.000000 4000.000000"
 preserveAspectRatio="xMidYMid meet">

<g transform="translate(0.000000,4000.000000) scale(0.100000,-0.100000)"
fill="#000000" stroke="none">
<path d="M24691 24528 c0 -4671 2 -8488 4 -8483 2 6 180 849 395 1875 215
1026 395 1874 399 1885 6 15 542 283 1860 930 l1851 909 0 5688 0 5688 -2255
0 -2255 0 1 -8492z"/>
<path d="M19110 21037 l0 -6063 2243 -744 c1233 -408 2248 -745 2255 -748 9
-3 12 1362 12 6807 l0 6811 -2255 0 -2255 0 0 -6063z"/>
<path d="M31313 23040 c2 -8 91 -246 196 -529 112 -298 189 -517 184 -522 -5
-5 -1304 -645 -2888 -1423 l-2879 -1414 -684 -3253 c-376 -1790 -685 -3255
-686 -3256 -2 -2 -1565 515 -3475 1148 -1909 634 -3473 1150 -3475 1148 -2 -2
-684 -1298 -1515 -2879 -832 -1581 -1516 -2878 -1520 -2883 -4 -4 -896 516
-1982 1155 -1086 639 -1983 1162 -1994 1162 -19 1 -6458 -3624 -6451 -3631 2
-2 1401 442 3109 987 l3106 991 2466 -1416 c1355 -778 2468 -1415 2472 -1415
5 0 667 1250 1472 2778 805 1527 1466 2780 1470 2784 3 3 1747 -572 3875
-1278 2128 -706 3871 -1282 3873 -1281 1 2 371 1759 820 3905 l817 3901 2405
1186 c1322 652 2406 1183 2409 1181 2 -2 107 -285 233 -627 127 -343 231 -625
233 -627 6 -5 2991 3678 2989 3686 -2 5 -4234 409 -4541 434 -35 3 -42 0 -39
-12z"/>
<path d="M13530 14973 l0 -4778 302 -177 302 -178 42 78 c23 42 704 1337 1514
2877 810 1540 1477 2804 1482 2810 5 6 159 -40 426 -129 229 -76 423 -141 430
-144 9 -3 12 442 12 2207 l0 2211 -2255 0 -2255 0 0 -4777z"/>
</g>
</svg>
